<svg width="104" height="32" viewBox="0 0 104 32" fill="none" xmlns="http://www.w3.org/2000/svg">
<rect x="0.5" y="0.5" width="103" height="31" rx="7.5" fill="#1C1C1E" stroke="#1C1C1E"/>
<path d="M20.9986 15.4645H17.5354V12.0015C17.5354 10.6662 15.4644 10.6662 15.4644 12.0015V15.4645H12.0013C10.6662 15.4645 10.6662 17.5355 12.0013 17.5355H15.4644V20.9985C15.4644 22.3338 17.5354 22.3338 17.5354 20.9985V17.5355H20.9986C22.3338 17.5355 22.3338 15.4645 20.9986 15.4645Z" fill="#EEF2F9"/>
<path d="M56.9986 15.0007H53.5354C51.4644 15.0007 53.5 14.9992 51.4644 15.0006L48.0013 15.0007C46.6662 15.0007 46.6662 16.9994 48.0013 16.9994H51.4644C53.5354 16.9993 51.5 17.0008 53.5354 16.9994H56.9986C58.3338 16.9994 58.3338 15.0007 56.9986 15.0007Z" fill="#EEF2F9"/>
</svg>
