<svg width="44" height="35" viewBox="0 0 44 35" fill="none" xmlns="http://www.w3.org/2000/svg">
<path d="M4.52604 26.6796L4.63704 7.71743H2.41699V31.8449C5.46777 31.0853 8.5293 30.6019 11.6123 30.5812C14.459 30.5639 17.3057 30.9472 20.1595 31.8794C18.387 30.4949 16.4105 29.4763 14.3014 28.8134C11.6445 27.9779 8.77279 27.7016 5.82943 27.9433C5.16341 27.9951 4.58333 27.5187 4.52604 26.8799C4.51888 26.8108 4.51888 26.7452 4.52604 26.6796ZM37.1035 6.72651C37.0964 6.67127 37.0892 6.61257 37.0892 6.55042C37.0892 6.49173 37.0928 6.43303 37.1035 6.37433V2.53493C34.3106 2.27944 31.4316 2.57637 28.918 3.49478C26.569 4.35451 24.5423 5.76666 23.2246 7.78994V29.6593C25.2728 28.3404 27.3675 27.2562 29.5195 26.5174C31.9723 25.6749 34.4932 25.2744 37.1035 25.4747V6.72651ZM39.5205 5.38686H42.7933C43.4593 5.38686 44 5.90822 44 6.55042V33.3641C44 34.0063 43.4593 34.5276 42.7933 34.5276C42.6572 34.5276 42.5247 34.5069 42.403 34.4655C39.0371 33.5367 35.6927 32.9187 32.3805 32.898C29.1507 32.8772 25.9245 33.4262 22.6839 34.8038C22.4834 34.9316 22.2435 35.0006 21.9964 34.9972C21.7529 35.0006 21.513 34.9316 21.3089 34.8038C18.0719 33.4228 14.8421 32.8772 11.6123 32.898C8.30013 32.9187 4.95931 33.5367 1.58984 34.4655C1.4681 34.5069 1.33561 34.5276 1.19954 34.5276C0.54069 34.5311 0 34.0097 0 33.3675V6.55042C0 5.90822 0.54069 5.38686 1.20671 5.38686H4.64779L4.66927 1.49913C4.67285 0.939788 5.08106 0.477127 5.62891 0.36664C8.80501 -0.272109 12.665 -0.113284 16.0488 1.13659C18.387 1.99977 20.5104 3.37739 22.0609 5.36615C23.6257 3.51205 25.7168 2.17931 28.0693 1.31958C31.2848 0.142215 34.9945 -0.140906 38.4857 0.35283C39.0872 0.435694 39.5169 0.936336 39.5169 1.50258V5.38686H39.5205ZM24.3955 31.7033C27.0632 30.8954 29.7272 30.5639 32.3913 30.5777C35.4743 30.595 38.5358 31.0818 41.5866 31.8414V7.71743H39.5205V26.7832C39.5205 27.4254 38.9798 27.9468 38.3138 27.9468C38.2171 27.9468 38.124 27.9364 38.0345 27.9157C35.3919 27.5152 32.8317 27.8467 30.3324 28.7064C28.32 29.4004 26.3434 30.4362 24.3955 31.7033ZM20.8112 29.4349V7.75541C19.5472 5.60438 17.5026 4.16461 15.193 3.31179C12.5755 2.34504 9.63574 2.12752 7.07194 2.47969L6.93587 25.5472C9.73242 25.4505 12.4681 25.7923 15.0426 26.6037C17.0908 27.2459 19.0316 28.1885 20.8112 29.4349Z" fill="url(#paint0_linear_584_12)"/>
<defs>
<linearGradient id="paint0_linear_584_12" x1="44" y1="0.000853875" x2="2.82946e-06" y2="35.0009" gradientUnits="userSpaceOnUse">
<stop stop-color="#D783FF"/>
<stop offset="1" stop-color="#BE9558"/>
</linearGradient>
</defs>
</svg>
