<svg width="69" height="57" viewBox="0 0 69 57" fill="none" xmlns="http://www.w3.org/2000/svg">
<g clip-path="url(#clip0_406_2)">
<path d="M7.09766 43.4486L7.27173 12.5673H3.79028V51.8605C8.57446 50.6235 13.3755 49.8363 18.2102 49.8025C22.6743 49.7744 27.1384 50.3986 31.6138 51.9168C28.8342 49.662 25.7346 48.0032 22.4272 46.9236C18.2607 45.5628 13.7573 45.113 9.1416 45.5066C8.09717 45.5909 7.1875 44.815 7.09766 43.7747C7.08643 43.6623 7.08643 43.5554 7.09766 43.4486ZM58.1851 10.9535C58.1738 10.8635 58.1626 10.7679 58.1626 10.6667C58.1626 10.5711 58.1682 10.4755 58.1851 10.3799V4.12719C53.8052 3.71109 49.2905 4.19467 45.3486 5.69038C41.665 7.0905 38.4868 9.39029 36.4204 12.6853V48.3012C39.6323 46.1532 42.9172 44.3876 46.292 43.1843C50.1384 41.8123 54.0916 41.16 58.1851 41.4862V10.9535ZM61.9753 8.77176H67.1077C68.1521 8.77176 69 9.62083 69 10.6667V54.3346C69 55.3805 68.1521 56.2296 67.1077 56.2296C66.8943 56.2296 66.6865 56.1958 66.4956 56.1284C61.2173 54.6158 55.9727 53.6093 50.7786 53.5755C45.7136 53.5418 40.6543 54.4359 35.5725 56.6794C35.2581 56.8875 34.8818 56.9999 34.4944 56.9943C34.1125 56.9999 33.7363 56.8875 33.4163 56.6794C28.3401 54.4302 23.2751 53.5418 18.2102 53.5755C13.0161 53.6093 7.7771 54.6158 2.49316 56.1284C2.30225 56.1958 2.09448 56.2296 1.8811 56.2296C0.8479 56.2352 0 55.3861 0 54.3403V10.6667C0 9.62083 0.8479 8.77176 1.89233 8.77176H7.28857L7.32227 2.4403C7.32788 1.52938 7.96802 0.775906 8.82715 0.595971C13.8079 -0.444277 19.8611 -0.185621 25.1675 1.84989C28.8342 3.25563 32.1641 5.4992 34.5955 8.73802C37.0493 5.71849 40.3286 3.54803 44.0178 2.14791C49.0603 0.230478 54.8777 -0.230605 60.3525 0.573479C61.2959 0.70843 61.9697 1.52376 61.9697 2.44593V8.77176H61.9753ZM38.2566 51.63C42.4399 50.3142 46.6177 49.7744 50.7954 49.7969C55.6301 49.825 60.4312 50.6179 65.2153 51.8549V12.5673H61.9753V43.6173C61.9753 44.6631 61.1274 45.5122 60.083 45.5122C59.9314 45.5122 59.7854 45.4953 59.645 45.4616C55.501 44.8093 51.4861 45.3491 47.5666 46.7493C44.4109 47.8795 41.3113 49.5664 38.2566 51.63ZM32.6357 47.9357V12.6291C30.6536 9.12601 27.4473 6.78123 23.8254 5.39236C19.7207 3.81793 15.1106 3.46368 11.0901 4.03723L10.8767 41.6043C15.2622 41.4468 19.5522 42.0035 23.5896 43.3249C26.8015 44.3708 29.845 45.9058 32.6357 47.9357Z" fill="#EEF0F6"/>
</g>
<defs>
<clipPath id="clip0_406_2">
<rect width="69" height="57" fill="white"/>
</clipPath>
</defs>
</svg>
