<svg width="32" height="32" viewBox="0 0 32 32" fill="none" xmlns="http://www.w3.org/2000/svg">
<rect width="32" height="32" rx="7" fill="url(#paint0_linear_235_228)"/>
<g filter="url(#filter0_d_235_228)">
<path d="M22.5848 12.2231C22.3614 11.7098 22.0392 11.2446 21.6364 10.8536C21.2332 10.4615 20.7579 10.1499 20.2362 9.93573C19.6953 9.71277 19.1151 9.59865 18.5293 9.59999C17.7076 9.59999 16.9058 9.82326 16.2091 10.245C16.0424 10.3459 15.884 10.4567 15.734 10.5774C15.584 10.4567 15.4257 10.3459 15.259 10.245C14.5622 9.82326 13.7605 9.59999 12.9387 9.59999C12.347 9.59999 11.7736 9.71245 11.2318 9.93573C10.7085 10.1507 10.2367 10.46 9.83169 10.8536C9.4283 11.2442 9.10607 11.7094 8.88324 12.2231C8.65155 12.7573 8.5332 13.3246 8.5332 13.9084C8.5332 14.4592 8.64655 15.0331 8.87158 15.6169C9.05993 16.1048 9.32996 16.6109 9.675 17.1219C10.2217 17.9307 10.9735 18.7742 11.9069 19.6293C13.4538 21.0467 14.9856 22.0258 15.0506 22.0655L15.4457 22.3169C15.6207 22.4277 15.8457 22.4277 16.0207 22.3169L16.4158 22.0655C16.4808 22.0241 18.011 21.0467 19.5595 19.6293C20.4929 18.7742 21.2447 17.9307 21.7914 17.1219C22.1364 16.6109 22.4081 16.1048 22.5948 15.6169C22.8198 15.0331 22.9332 14.4592 22.9332 13.9084C22.9349 13.3246 22.8165 12.7573 22.5848 12.2231Z" fill="#EEF2F9"/>
</g>
<defs>
<filter id="filter0_d_235_228" x="8.5332" y="9.59998" width="14.4004" height="14.8" filterUnits="userSpaceOnUse" color-interpolation-filters="sRGB">
<feFlood flood-opacity="0" result="BackgroundImageFix"/>
<feColorMatrix in="SourceAlpha" type="matrix" values="0 0 0 0 0 0 0 0 0 0 0 0 0 0 0 0 0 0 127 0" result="hardAlpha"/>
<feOffset dy="2"/>
<feComposite in2="hardAlpha" operator="out"/>
<feColorMatrix type="matrix" values="0 0 0 0 0 0 0 0 0 0 0 0 0 0 0 0 0 0 0.1 0"/>
<feBlend mode="normal" in2="BackgroundImageFix" result="effect1_dropShadow_235_228"/>
<feBlend mode="normal" in="SourceGraphic" in2="effect1_dropShadow_235_228" result="shape"/>
</filter>
<linearGradient id="paint0_linear_235_228" x1="3.42727e-07" y1="32" x2="32" y2="-1.56462e-06" gradientUnits="userSpaceOnUse">
<stop stop-color="#BE9558"/>
<stop offset="1" stop-color="#D783FF"/>
</linearGradient>
</defs>
</svg>
